<svg xmlns="http://www.w3.org/2000/svg" viewBox="3620 82.398 61.67 73.526">
  <defs>
    <style>
      .cls-1 {
        fill: #b1cbfd;
      }
    </style>
  </defs>
  <path id="Path_138" data-name="Path 138" class="cls-1" d="M5.055,0A4.716,4.716,0,0,0,1.471,1.471,4.716,4.716,0,0,0,0,5.055V68.471a4.856,4.856,0,0,0,1.471,3.584,4.716,4.716,0,0,0,3.584,1.471h51.56A4.856,4.856,0,0,0,60.2,72.055a4.716,4.716,0,0,0,1.471-3.584V18.933a.553.553,0,0,0-.092-.368c-.092-.092-.184-.276-.276-.368L43.472.368C43.38.276,43.2.184,43.1.092A.553.553,0,0,0,42.737,0Zm51.56,71.32H5.055a2.851,2.851,0,0,1-2.022-.827,2.912,2.912,0,0,1-.827-2.114V4.963A2.824,2.824,0,0,1,5.055,2.114H39.612v14.8A4.856,4.856,0,0,0,41.083,20.5a4.716,4.716,0,0,0,3.584,1.471h14.8V68.379a2.912,2.912,0,0,1-.827,2.114A3.015,3.015,0,0,1,56.615,71.32ZM35.66,50.825,47.792,65.162c.092.092.276.184.368.276a1.25,1.25,0,0,0,1.1-.184,1.384,1.384,0,0,0,.368-.735,1.044,1.044,0,0,0-.276-.735h0L37.314,49.446l.551-.551a13.84,13.84,0,0,0,2.849-4.6,13.993,13.993,0,0,0,1.011-5.514,13.911,13.911,0,0,0-1.195-5.79,15.625,15.625,0,0,0-3.217-4.779,14.375,14.375,0,0,0-4.779-3.125,15.528,15.528,0,0,0-5.79-1.195,13.332,13.332,0,0,0-5.79,1.195,14.146,14.146,0,0,0-4.779,3.217,14.592,14.592,0,0,0-3.217,4.779,15.528,15.528,0,0,0-1.195,5.79,13.332,13.332,0,0,0,1.195,5.79,15.02,15.02,0,0,0,8,8,15.16,15.16,0,0,0,5.79,1.195,13.671,13.671,0,0,0,4.32-.643,12.872,12.872,0,0,0,3.768-1.746Zm-8.823.735A12.865,12.865,0,0,1,13.97,38.693a12.361,12.361,0,0,1,3.768-9.007,12.418,12.418,0,0,1,9.1-3.768,12.361,12.361,0,0,1,9.007,3.768,12.758,12.758,0,0,1,0,18.106A12.361,12.361,0,0,1,26.837,51.56ZM59.924,19.852H44.667A2.824,2.824,0,0,1,41.818,17V1.654Z" transform="translate(3620 82.398)"/>
</svg>
