<svg xmlns="http://www.w3.org/2000/svg" viewBox="2337 5710 122.542 36.309">
  <defs>
    <style>
      .cls-1 {
        fill: #a6a6a6;
      }

      .cls-2 {
        fill: #fff;
      }
    </style>
  </defs>
  <g id="Download_on_the_App_Store_Badge_US-UK_135x40" transform="translate(2337 5710)">
    <path id="Path_48" data-name="Path 48" class="cls-1" d="M118.182,36.309H4.293A4.3,4.3,0,0,1,0,32.012V4.29A4.3,4.3,0,0,1,4.293,0H118.182a4.355,4.355,0,0,1,4.36,4.29V32.012a4.361,4.361,0,0,1-4.36,4.3Z"/>
    <path id="Path_49" data-name="Path 49" d="M121.745,32.1a3.476,3.476,0,0,1-3.48,3.477H4.375A3.481,3.481,0,0,1,.89,32.1V4.371A3.485,3.485,0,0,1,4.375.89H118.264a3.48,3.48,0,0,1,3.48,3.481V32.1Z" transform="translate(-0.082 -0.082)"/>
    <g id="Group_23" data-name="Group 23" transform="translate(11.611 5.643)">
      <g id="Group_22" data-name="Group 22">
        <path id="Path_50" data-name="Path 50" class="cls-2" d="M28.528,19.1a5.262,5.262,0,0,1,2.506-4.415A5.389,5.389,0,0,0,26.79,12.39C25,12.2,23.272,13.458,22.363,13.458c-.928,0-2.328-1.05-3.838-1.019a5.651,5.651,0,0,0-4.756,2.9c-2.057,3.561-.523,8.794,1.448,11.672.986,1.41,2.138,2.984,3.645,2.928,1.475-.061,2.026-.94,3.806-.94,1.764,0,2.281.94,3.819.9,1.583-.025,2.58-1.416,3.531-2.838a11.648,11.648,0,0,0,1.615-3.289A5.086,5.086,0,0,1,28.528,19.1Z" transform="translate(-12.792 -6.785)"/>
        <path id="Path_51" data-name="Path 51" class="cls-2" d="M26.575,9.929a5.179,5.179,0,0,0,1.185-3.712A5.276,5.276,0,0,0,24.35,7.982a4.929,4.929,0,0,0-1.216,3.575A4.358,4.358,0,0,0,26.575,9.929Z" transform="translate(-13.744 -6.217)"/>
      </g>
    </g>
    <g id="Group_24" data-name="Group 24" transform="translate(38.496 16.34)">
      <path id="Path_52" data-name="Path 52" class="cls-2" d="M52.608,30.276H50.547l-1.129-3.548H45.493l-1.076,3.548H42.41L46.3,18.2h2.4Zm-3.531-5.037-1.021-3.154q-.162-.483-.609-2.276h-.036q-.178.771-.574,2.276l-1,3.154Z" transform="translate(-42.41 -18.019)"/>
      <path id="Path_53" data-name="Path 53" class="cls-2" d="M63.809,26.138a4.95,4.95,0,0,1-1.2,3.512,3.511,3.511,0,0,1-2.67,1.147,2.67,2.67,0,0,1-2.474-1.236h-.036v4.588H55.493V24.757q0-1.4-.072-2.867h1.7l.108,1.381h.036a3.443,3.443,0,0,1,5.511-.341A4.8,4.8,0,0,1,63.809,26.138Zm-1.972.071a3.586,3.586,0,0,0-.574-2.1,1.981,1.981,0,0,0-1.685-.861,2.012,2.012,0,0,0-1.3.475,2.2,2.2,0,0,0-.762,1.246,2.534,2.534,0,0,0-.09.59v1.452a2.327,2.327,0,0,0,.583,1.6,1.932,1.932,0,0,0,1.514.654,1.981,1.981,0,0,0,1.7-.842A3.707,3.707,0,0,0,61.838,26.209Z" transform="translate(-43.611 -18.343)"/>
      <path id="Path_54" data-name="Path 54" class="cls-2" d="M74.846,26.138a4.946,4.946,0,0,1-1.2,3.512,3.508,3.508,0,0,1-2.67,1.147A2.668,2.668,0,0,1,68.5,29.561h-.036v4.588H66.531V24.757q0-1.4-.072-2.867h1.7l.108,1.381h.036a3.444,3.444,0,0,1,5.512-.341A4.812,4.812,0,0,1,74.846,26.138Zm-1.972.071a3.586,3.586,0,0,0-.575-2.1,1.979,1.979,0,0,0-1.684-.861,2.015,2.015,0,0,0-1.3.475,2.2,2.2,0,0,0-.761,1.246,2.583,2.583,0,0,0-.09.59v1.452a2.334,2.334,0,0,0,.581,1.6,1.936,1.936,0,0,0,1.516.654,1.981,1.981,0,0,0,1.7-.842A3.707,3.707,0,0,0,72.875,26.209Z" transform="translate(-44.629 -18.343)"/>
      <path id="Path_55" data-name="Path 55" class="cls-2" d="M87.277,26.87A3.219,3.219,0,0,1,86.2,29.379a4.755,4.755,0,0,1-3.29,1.057,5.76,5.76,0,0,1-3.131-.752l.448-1.613a5.3,5.3,0,0,0,2.8.772,2.645,2.645,0,0,0,1.7-.494,1.612,1.612,0,0,0,.608-1.32,1.683,1.683,0,0,0-.5-1.238,4.666,4.666,0,0,0-1.667-.934Q80,23.674,80,21.393a3.065,3.065,0,0,1,1.112-2.441A4.384,4.384,0,0,1,84.07,18a5.863,5.863,0,0,1,2.741.574l-.484,1.578a4.756,4.756,0,0,0-2.312-.556,2.34,2.34,0,0,0-1.594.5,1.434,1.434,0,0,0-.484,1.094,1.476,1.476,0,0,0,.555,1.183,6.268,6.268,0,0,0,1.757.932,5.962,5.962,0,0,1,2.294,1.469A3.068,3.068,0,0,1,87.277,26.87Z" transform="translate(-45.859 -18.001)"/>
      <path id="Path_56" data-name="Path 56" class="cls-2" d="M94.549,23.14H92.416v4.229q0,1.613,1.129,1.613a3.442,3.442,0,0,0,.86-.09l.054,1.47a4.385,4.385,0,0,1-1.5.214,2.322,2.322,0,0,1-1.793-.7,3.433,3.433,0,0,1-.645-2.348V23.138H89.244V21.686h1.271V20.091l1.9-.574v2.169h2.133Z" transform="translate(-46.732 -18.141)"/>
      <path id="Path_57" data-name="Path 57" class="cls-2" d="M104.824,26.173a4.778,4.778,0,0,1-1.147,3.3,4.1,4.1,0,0,1-3.192,1.326,3.9,3.9,0,0,1-3.054-1.272,4.632,4.632,0,0,1-1.138-3.208A4.731,4.731,0,0,1,97.466,23a4.062,4.062,0,0,1,3.162-1.291,3.978,3.978,0,0,1,3.083,1.273A4.579,4.579,0,0,1,104.824,26.173Zm-2.008.063a3.918,3.918,0,0,0-.519-2.067,1.912,1.912,0,0,0-1.737-1.042,1.941,1.941,0,0,0-1.775,1.042,3.993,3.993,0,0,0-.519,2.1,3.912,3.912,0,0,0,.519,2.066,1.978,1.978,0,0,0,3.495-.018A3.932,3.932,0,0,0,102.816,26.236Z" transform="translate(-47.383 -18.343)"/>
      <path id="Path_58" data-name="Path 58" class="cls-2" d="M112.147,23.592a3.36,3.36,0,0,0-.61-.054,1.829,1.829,0,0,0-1.578.772,2.9,2.9,0,0,0-.484,1.72V30.6h-1.934l.018-5.967q0-1.506-.073-2.742h1.686l.071,1.667h.054a2.979,2.979,0,0,1,.968-1.38,2.34,2.34,0,0,1,1.4-.467,3.107,3.107,0,0,1,.484.035v1.845Z" transform="translate(-48.416 -18.343)"/>
      <path id="Path_59" data-name="Path 59" class="cls-2" d="M121.369,25.831a4.54,4.54,0,0,1-.071.878h-5.806a2.527,2.527,0,0,0,.842,1.972,2.876,2.876,0,0,0,1.9.609,6.421,6.421,0,0,0,2.349-.412l.3,1.343a7.263,7.263,0,0,1-2.92.538,4.23,4.23,0,0,1-3.182-1.192,4.4,4.4,0,0,1-1.156-3.2,4.99,4.99,0,0,1,1.077-3.28,3.709,3.709,0,0,1,3.045-1.4,3.246,3.246,0,0,1,2.851,1.4A4.711,4.711,0,0,1,121.369,25.831Zm-1.845-.5a2.629,2.629,0,0,0-.376-1.488,1.691,1.691,0,0,0-1.542-.807,1.836,1.836,0,0,0-1.54.789,2.888,2.888,0,0,0-.573,1.5h4.031Z" transform="translate(-48.982 -18.342)"/>
    </g>
    <g id="Group_26" data-name="Group 26" transform="translate(39.645 5.951)">
      <g id="Group_25" data-name="Group 25">
        <path id="Path_60" data-name="Path 60" class="cls-2" d="M48.554,9.717a2.98,2.98,0,0,1-.96,2.413,3.82,3.82,0,0,1-2.526.748,11.713,11.713,0,0,1-1.392-.071V6.969a10.269,10.269,0,0,1,1.638-.123,3.532,3.532,0,0,1,2.351.678A2.74,2.74,0,0,1,48.554,9.717Zm-1,.026A2.169,2.169,0,0,0,47,8.149a2.168,2.168,0,0,0-1.608-.555,4.026,4.026,0,0,0-.766.062v4.438a5.023,5.023,0,0,0,.643.026,2.25,2.25,0,0,0,1.686-.607A2.432,2.432,0,0,0,47.551,9.743Z" transform="translate(-43.676 -6.583)"/>
        <path id="Path_61" data-name="Path 61" class="cls-2" d="M54.483,10.814a2.347,2.347,0,0,1-.564,1.62,2.012,2.012,0,0,1-1.568.652,1.912,1.912,0,0,1-1.5-.625,2.278,2.278,0,0,1-.558-1.576,2.324,2.324,0,0,1,.576-1.628,2,2,0,0,1,1.554-.634,1.957,1.957,0,0,1,1.515.625A2.259,2.259,0,0,1,54.483,10.814Zm-.987.031a1.935,1.935,0,0,0-.255-1.016.939.939,0,0,0-.853-.512.954.954,0,0,0-.872.512,1.961,1.961,0,0,0-.255,1.033,1.935,1.935,0,0,0,.255,1.016.96.96,0,0,0,.863.512.949.949,0,0,0,.853-.521A1.923,1.923,0,0,0,53.5,10.845Z" transform="translate(-44.287 -6.747)"/>
        <path id="Path_62" data-name="Path 62" class="cls-2" d="M62.135,8.719,60.8,13h-.871L59.37,11.14a13.908,13.908,0,0,1-.344-1.382h-.017a10.121,10.121,0,0,1-.344,1.382L58.075,13h-.881L55.935,8.719h.978l.484,2.034q.176.722.29,1.373H57.7q.106-.536.353-1.364l.607-2.042h.775l.582,2q.211.731.343,1.409h.026a13.461,13.461,0,0,1,.29-1.409l.519-2h.934Z" transform="translate(-44.807 -6.756)"/>
        <path id="Path_63" data-name="Path 63" class="cls-2" d="M67.817,12.989h-.951V10.538q0-1.133-.862-1.133a.858.858,0,0,0-.687.311,1.1,1.1,0,0,0-.264.733v2.538H64.1V9.933q0-.564-.034-1.225H64.9l.044.669h.026a1.374,1.374,0,0,1,.493-.516,1.608,1.608,0,0,1,.862-.241,1.366,1.366,0,0,1,1,.388,1.883,1.883,0,0,1,.493,1.418Z" transform="translate(-45.558 -6.746)"/>
        <path id="Path_64" data-name="Path 64" class="cls-2" d="M70.991,12.8h-.95V6.556h.95Z" transform="translate(-46.109 -6.556)"/>
        <path id="Path_65" data-name="Path 65" class="cls-2" d="M76.832,10.814a2.347,2.347,0,0,1-.564,1.62,2.013,2.013,0,0,1-1.568.652,1.91,1.91,0,0,1-1.5-.625,2.278,2.278,0,0,1-.558-1.576,2.324,2.324,0,0,1,.576-1.628,2,2,0,0,1,1.553-.634,1.959,1.959,0,0,1,1.516.625A2.259,2.259,0,0,1,76.832,10.814Zm-.988.031a1.935,1.935,0,0,0-.255-1.016.938.938,0,0,0-.852-.512.952.952,0,0,0-.872.512,1.961,1.961,0,0,0-.255,1.033,1.935,1.935,0,0,0,.255,1.016.96.96,0,0,0,.863.512.948.948,0,0,0,.852-.521A1.915,1.915,0,0,0,75.844,10.845Z" transform="translate(-46.349 -6.747)"/>
        <path id="Path_66" data-name="Path 66" class="cls-2" d="M81.973,12.989h-.854l-.071-.493h-.026a1.465,1.465,0,0,1-1.25.59,1.29,1.29,0,0,1-.977-.388,1.215,1.215,0,0,1-.335-.871,1.329,1.329,0,0,1,.656-1.2,3.406,3.406,0,0,1,1.845-.4v-.08q0-.846-.889-.845a1.99,1.99,0,0,0-1.116.317l-.193-.625a2.744,2.744,0,0,1,1.468-.369q1.677,0,1.679,1.77v1.576A6.684,6.684,0,0,0,81.973,12.989Zm-.988-1.47v-.66q-1.574-.027-1.574.862a.645.645,0,0,0,.182.5.665.665,0,0,0,.465.167.961.961,0,0,0,.582-.2.812.812,0,0,0,.345-.674Z" transform="translate(-46.886 -6.747)"/>
        <path id="Path_67" data-name="Path 67" class="cls-2" d="M87.87,12.8h-.844l-.044-.687h-.026a1.422,1.422,0,0,1-1.374.784,1.61,1.61,0,0,1-1.285-.607,2.366,2.366,0,0,1-.51-1.576A2.481,2.481,0,0,1,84.34,9.03a1.705,1.705,0,0,1,1.321-.6,1.282,1.282,0,0,1,1.205.581h.018V6.556h.952v5.09Q87.836,12.271,87.87,12.8Zm-.986-1.8V10.28a1.4,1.4,0,0,0-.026-.3,1.083,1.083,0,0,0-.344-.576.935.935,0,0,0-.636-.233.976.976,0,0,0-.837.423,1.813,1.813,0,0,0-.3,1.083,1.69,1.69,0,0,0,.292,1.03.979.979,0,0,0,.831.422.917.917,0,0,0,.752-.352A1.173,1.173,0,0,0,86.884,10.994Z" transform="translate(-47.377 -6.556)"/>
        <path id="Path_68" data-name="Path 68" class="cls-2" d="M96.822,10.814a2.347,2.347,0,0,1-.564,1.62,2.011,2.011,0,0,1-1.568.652,1.915,1.915,0,0,1-1.5-.625,2.278,2.278,0,0,1-.558-1.576,2.324,2.324,0,0,1,.576-1.628,2,2,0,0,1,1.555-.634,1.955,1.955,0,0,1,1.514.625A2.259,2.259,0,0,1,96.822,10.814Zm-.986.031a1.935,1.935,0,0,0-.255-1.016.941.941,0,0,0-.854-.512.956.956,0,0,0-.872.512,1.961,1.961,0,0,0-.255,1.033,1.935,1.935,0,0,0,.255,1.016.972.972,0,0,0,1.717-.009A1.931,1.931,0,0,0,95.836,10.845Z" transform="translate(-48.194 -6.747)"/>
        <path id="Path_69" data-name="Path 69" class="cls-2" d="M102.5,12.989h-.95V10.538q0-1.133-.863-1.133a.855.855,0,0,0-.686.311,1.1,1.1,0,0,0-.264.733v2.538h-.952V9.933q0-.564-.034-1.225h.835l.044.669h.026a1.388,1.388,0,0,1,.493-.516,1.611,1.611,0,0,1,.863-.241,1.365,1.365,0,0,1,.995.388,1.88,1.88,0,0,1,.493,1.418Z" transform="translate(-48.759 -6.746)"/>
        <path id="Path_70" data-name="Path 70" class="cls-2" d="M109.671,9.323h-1.048V11.4c0,.528.186.792.555.792a1.675,1.675,0,0,0,.424-.044l.025.722a2.137,2.137,0,0,1-.739.106,1.137,1.137,0,0,1-.88-.343,1.678,1.678,0,0,1-.318-1.154V9.323h-.625V8.611h.625V7.826l.932-.281V8.61h1.048v.713Z" transform="translate(-49.526 -6.647)"/>
        <path id="Path_71" data-name="Path 71" class="cls-2" d="M115.106,12.8h-.952V10.366q0-1.151-.861-1.151a.908.908,0,0,0-.908.667,1.2,1.2,0,0,0-.044.342V12.8h-.95V6.556h.95V9.135h.018a1.438,1.438,0,0,1,1.285-.7,1.326,1.326,0,0,1,.979.388,1.949,1.949,0,0,1,.484,1.435V12.8Z" transform="translate(-49.925 -6.556)"/>
        <path id="Path_72" data-name="Path 72" class="cls-2" d="M120.82,10.646a2.3,2.3,0,0,1-.035.431h-2.853a1.248,1.248,0,0,0,.413.969,1.417,1.417,0,0,0,.934.3,3.152,3.152,0,0,0,1.154-.2l.149.661a3.583,3.583,0,0,1-1.436.264,2.074,2.074,0,0,1-1.562-.585,2.157,2.157,0,0,1-.567-1.571,2.449,2.449,0,0,1,.528-1.611,1.819,1.819,0,0,1,1.5-.686,1.592,1.592,0,0,1,1.4.686A2.284,2.284,0,0,1,120.82,10.646Zm-.908-.246a1.281,1.281,0,0,0-.184-.731.831.831,0,0,0-.757-.4.9.9,0,0,0-.757.388,1.44,1.44,0,0,0-.282.74h1.981Z" transform="translate(-50.444 -6.746)"/>
      </g>
    </g>
  </g>
</svg>
