<svg xmlns="http://www.w3.org/2000/svg" viewBox="3851.811 105 14.83 28.287">
  <defs>
    <style>
      .cls-1 {
        fill: #6297fa;
      }
    </style>
  </defs>
  <g id="Group_147" data-name="Group 147" transform="translate(3312.452 1152.186) rotate(180)">
    <path id="Path_109" data-name="Path 109" class="cls-1" d="M14.089,28.177h-.247a.242.242,0,0,1-.247-.247L.247,14.583C0,14.583,0,14.336,0,14.089s0-.494.247-.494L13.594.247C13.841,0,13.841,0,14.089,0s.494,0,.494.247c.247,0,.247.247.247.494s0,.494-.247.494L1.73,14.089,14.583,26.941c.247,0,.247.247.247.494s0,.494-.247.494a.242.242,0,0,0-.247.247C14.336,28.424,14.089,28.177,14.089,28.177Z" transform="translate(-554.189 1018.899)"/>
  </g>
</svg>
