<svg xmlns="http://www.w3.org/2000/svg" viewBox="3505.625 82.024 65.726 74.276">
  <defs>
    <style>
      .cls-1 {
        fill: #b1cbfd;
        stroke: #b1cbfd;
        stroke-width: 0.75px;
      }
    </style>
  </defs>
  <g id="Cover_within_the_hour" data-name="Cover within the hour" transform="translate(3290.044 -3443)">
    <g id="Group_97" data-name="Group 97" transform="translate(215.956 2573.099)">
      <path id="Path_137" data-name="Path 137" class="cls-1" d="M26.332,952.386a.859.859,0,0,0,.171,1.71h5.13v6.84h0a32.492,32.492,0,0,0-6.156,64.207.872.872,0,0,0,.342-1.71h0a30.761,30.761,0,1,1,27.786-52.408L50.7,973.93a.846.846,0,0,0,1.2,1.2h0l2.907-2.907a30.244,30.244,0,0,1,8.379,20.262H58.735a.859.859,0,0,0,.171,1.71h4.275a30.245,30.245,0,0,1-8.379,20.262l-2.907-2.907a.971.971,0,0,0-.684-.256.862.862,0,0,0-.769.94.609.609,0,0,0,.256.513l2.907,2.907a30.655,30.655,0,0,1-20.262,8.379v-4.189a.855.855,0,0,0-1.71,0h0v5.13a.808.808,0,0,0,.855.855,32.494,32.494,0,0,0,.855-64.976h0v-6.84h5.13a.855.855,0,1,0,0-1.71H26.5C26.418,952.386,26.418,952.386,26.332,952.386Zm6.07,15.3a.909.909,0,0,0-.769.855v18.894a5.985,5.985,0,1,0,1.71,0V968.544a.808.808,0,0,0-.855-.855Zm.085,21.459a4.275,4.275,0,1,1-4.275,4.275A4.233,4.233,0,0,1,32.488,989.148Z" transform="translate(0 0)"/>
    </g>
  </g>
</svg>
