<svg xmlns="http://www.w3.org/2000/svg" xmlns:xlink="http://www.w3.org/1999/xlink" viewBox="2982 78 314.973 87.945">
  <defs>
    <style>
      .cls-1 {
        fill: #ff8246;
      }

      .cls-2 {
        fill: #fff;
      }

      .cls-3 {
        filter: url(#Ellipse_28);
      }

      .cls-4 {
        filter: url(#Rectangle_73);
      }
    </style>
    <filter id="Rectangle_73" x="2994.973" y="94.973" width="302" height="54" filterUnits="userSpaceOnUse">
      <feOffset dy="1" input="SourceAlpha"/>
      <feGaussianBlur stdDeviation="1" result="blur"/>
      <feFlood flood-opacity="0.2"/>
      <feComposite operator="in" in2="blur"/>
      <feComposite in="SourceGraphic"/>
    </filter>
    <filter id="Ellipse_28" x="2982" y="78" width="87.945" height="87.945" filterUnits="userSpaceOnUse">
      <feOffset dy="1" input="SourceAlpha"/>
      <feGaussianBlur stdDeviation="3" result="blur-2"/>
      <feFlood flood-color="#8e401a"/>
      <feComposite operator="in" in2="blur-2"/>
      <feComposite in="SourceGraphic"/>
    </filter>
  </defs>
  <g id="Symbol_1_6" data-name="Symbol 1 – 6" transform="translate(2160.973 -5862.027)">
    <g id="Group_126" data-name="Group 126" transform="translate(797 5391)">
      <g class="cls-4" transform="matrix(1, 0, 0, 1, -2957.97, 471.03)">
        <rect id="Rectangle_73-2" data-name="Rectangle 73" class="cls-1" width="296" height="48" rx="24" transform="translate(2997.97 96.97)"/>
      </g>
    </g>
    <g id="Fingerprint" transform="translate(607.027 5462.027)">
      <g class="cls-3" transform="matrix(1, 0, 0, 1, -2768, 400)">
        <circle id="Ellipse_28-2" data-name="Ellipse 28" class="cls-1" cx="34.973" cy="34.973" r="34.973" transform="translate(2991 86)"/>
      </g>
      <path id="Path_152" data-name="Path 152" class="cls-2" d="M27.053,0A27.4,27.4,0,0,0,1.436,36.151a6.277,6.277,0,0,0,.479-3.591V32.32A25.335,25.335,0,0,1,5.746,12.928,25.835,25.835,0,0,1,22.026,1.915a26.065,26.065,0,0,1,8.619-.239c.479,0,.718.479.718.958s-.479.718-.958.718a29.143,29.143,0,0,0-7.9.239A24.238,24.238,0,0,0,6.943,13.886,25.505,25.505,0,0,0,3.352,31.6v.479a8.237,8.237,0,0,1-1.2,6.225,7.168,7.168,0,0,0,.958,1.915,9.414,9.414,0,0,0,2.155-7.9v-.239a18.48,18.48,0,0,1-.479-3.591c0-.479.239-.958.718-.958h0c.479,0,.718.239.958.718,0,.958.239,1.915.239,2.873V31.6A12.307,12.307,0,0,1,3.831,41.9c.718.239.958.718,1.436,1.2A13.4,13.4,0,0,0,9.1,31.362v-.479a18.614,18.614,0,0,1,6.464-18.2c.479-.239.958-.239,1.2.239a1.439,1.439,0,0,1-.239.958,17.073,17.073,0,0,0-5.985,16.04V30.4A15.666,15.666,0,0,1,6.225,44.29c.479.479.718.958,1.2,1.436a15.657,15.657,0,0,0,4.07-6.225.912.912,0,1,1,1.676.718,18.519,18.519,0,0,1-4.549,6.7l1.436,1.436a21.328,21.328,0,0,0,5.985-18.2l-.239-.479A11.683,11.683,0,0,1,24.9,16.04a13.651,13.651,0,0,1,3.112-.239c.479,0,.718.479.718.958s-.479.718-.958.718a8.977,8.977,0,0,0-2.633.239,9.518,9.518,0,0,0-7.661,11.013v.479a22.166,22.166,0,0,1-5.985,20.11c.479.239.958.718,1.436.958a23.82,23.82,0,0,0,6.464-20.11c0-.479.239-.958.718-.958s.958.239.958.718a25.977,25.977,0,0,1-6.7,21.068,6,6,0,0,1,1.676.958,27.591,27.591,0,0,0,5.267-8.379c.479-.479.958-.718,1.436-.479a.874.874,0,0,1,.479,1.2,33.147,33.147,0,0,1-5.267,8.379c.718.239,1.2.479,1.915.718a31.16,31.16,0,0,0,6.464-26.1c0-.479.239-.958.718-.958s.958.239.958.718a32.6,32.6,0,0,1-6.225,26.814,6.628,6.628,0,0,0,2.155.239,35.212,35.212,0,0,0,5.985-27.532v-.239a2.688,2.688,0,0,0-5.267.958v.479a33.521,33.521,0,0,1,0,11.97c0,.479-.479.718-.958.718s-.718-.479-.718-.958a32.545,32.545,0,0,0,0-10.773h0l-.239-.718A4.411,4.411,0,0,1,26.1,22.744a4.155,4.155,0,0,1,3.352.718,4.766,4.766,0,0,1,1.915,2.873l.239.718h0a37.658,37.658,0,0,1-5.746,27.293h2.155a36.917,36.917,0,0,0,5.746-16.519c0-.479.479-.718.958-.718s.718.479.718.958a37.709,37.709,0,0,1-5.506,16.04c.718,0,1.676-.239,2.394-.239a42.14,42.14,0,0,0,4.309-28.49v-.239a9.739,9.739,0,0,0-4.788-6.225c-.479-.239-.479-.718-.239-1.2s.718-.479,1.2-.239a12.171,12.171,0,0,1,5.746,7.9l.239.718h0a44.6,44.6,0,0,1-3.831,27.771,7.17,7.17,0,0,0,2.394-.958c.958-2.394,1.915-4.788,2.633-7.182.239-.479.479-.718.958-.718.479.239.718.479.718.958a53.875,53.875,0,0,1-1.915,5.746c.958-.479,1.676-.958,2.633-1.436A50.056,50.056,0,0,0,44.29,24.42V24.18a18.372,18.372,0,0,0-2.873-6.7c-.958-.718-.718-1.2-.479-1.436.479-.239.958-.239,1.2.239a20.033,20.033,0,0,1,3.112,6.943h0v.239a50.6,50.6,0,0,1-1.2,24.659,23.841,23.841,0,0,0,2.633-2.394,56.322,56.322,0,0,0,1.436-15.562c0-.479.239-.958.718-.958s.958.239.958.718a58.624,58.624,0,0,1-.718,12.928,22.733,22.733,0,0,0,2.394-4.07,60.153,60.153,0,0,0-.718-16.04v-.479a23.8,23.8,0,0,0-16.28-18.2C34,3.831,33.757,3.352,34,3.112c.239-.479.718-.718.958-.479A25.643,25.643,0,0,1,52.191,21.307h0l.239.718a59.9,59.9,0,0,1,1.2,11.252,26.1,26.1,0,0,0,.718-6.225A27.23,27.23,0,0,0,27.053,0ZM31.6,20.589a7.373,7.373,0,0,1,3.352,5.028l.239.718h0a36.54,36.54,0,0,1,.718,7.182,1.03,1.03,0,0,1-.958.958h0A1.03,1.03,0,0,1,34,33.517a38.974,38.974,0,0,0-.718-7.422v-.239a5.747,5.747,0,0,0-2.633-3.591,6.74,6.74,0,0,0-4.788-.958A6.151,6.151,0,0,0,21.068,26.1c0,.479-.479.718-.958.718s-.718-.479-.718-.958a8.264,8.264,0,0,1,6.225-6.225A6.822,6.822,0,0,1,31.6,20.589ZM41.9,24.18v.479h0a47.867,47.867,0,0,1,.239,16.519c0,.479-.479.718-.958.718h-.239c-.479,0-.718-.479-.718-.958a46.412,46.412,0,0,0-.239-16.28V24.42a13.409,13.409,0,0,0-26.335,5.028v.479a10.664,10.664,0,0,1,.718,5.506c0,.479-.479.718-.958.718s-.718-.479-.718-.958a16.491,16.491,0,0,0-.239-4.788v-.479A15.008,15.008,0,0,1,24.18,12.21,15.356,15.356,0,0,1,41.9,24.18Zm-22.5-13.886a11.787,11.787,0,0,1,4.07-1.436,18.271,18.271,0,0,1,15.562,3.831c.479.239.479.718.239,1.2a.879.879,0,0,1-.718.239c-.239,0-.479,0-.479-.239A18.13,18.13,0,0,0,23.7,10.534a21.068,21.068,0,0,0-3.591,1.2.874.874,0,0,1-1.2-.479A.649.649,0,0,1,19.392,10.295ZM48.839,22.026h0l.239.718c.239.958.239,1.915.479,2.873,0,.479-.239.958-.718.958H48.6c-.479,0-.718-.239-.958-.718a8.506,8.506,0,0,0-.479-2.394v-.479a20.539,20.539,0,0,0-24.18-16.04A22.868,22.868,0,0,0,12.21,12.928,22.788,22.788,0,0,0,6.943,23.7c0,.479-.479.718-.958.718s-.718-.479-.718-.958a22.6,22.6,0,0,1,5.746-11.731A21.956,21.956,0,0,1,22.744,5.267C34.475,2.873,45.966,10.534,48.839,22.026Z" transform="translate(230.839 493.839)"/>
    </g>
  </g>
</svg>
