<svg xmlns="http://www.w3.org/2000/svg" viewBox="3731 86 72 72">
  <defs>
    <style>
      .cls-1 {
        fill: #b1cbfd;
        stroke-width: 0.75px;
      }

      .cls-1, .cls-2 {
        stroke: #b1cbfd;
      }

      .cls-2, .cls-4 {
        fill: none;
      }

      .cls-2 {
        stroke-width: 2.5px;
      }

      .cls-3 {
        stroke: none;
      }
    </style>
  </defs>
  <g id="Group_145" data-name="Group 145" transform="translate(3084 -4253)">
    <g id="Group_104" data-name="Group 104" transform="translate(670 3406.615)">
      <path id="Path_142" data-name="Path 142" class="cls-1" d="M14.3,952.4a2.029,2.029,0,0,0-.834.119,9.934,9.934,0,0,0-8.7,10.723c.119,1.311.119,2.383.238,3.455H1.191a1.191,1.191,0,1,0,0,2.383H5.242a29.818,29.818,0,0,1,.119,4.527,14.918,14.918,0,0,1-2.74,7.863,1.172,1.172,0,0,0,.357,1.668,1.693,1.693,0,0,0,.715.238H22.755a1.191,1.191,0,1,0,0-2.383H5.48a17.7,17.7,0,0,0,2.264-7.267,31.023,31.023,0,0,0-.119-4.646h7.863a1.191,1.191,0,1,0,0-2.383h-8.1c-.119-1.191-.119-2.264-.238-3.574C6.791,958,10.127,955.262,13.7,954.9a6.75,6.75,0,0,1,5,1.191,6.212,6.212,0,0,1,2.621,4.885,1.2,1.2,0,0,0,2.383-.238h0a9.067,9.067,0,0,0-3.693-6.553A7.845,7.845,0,0,0,14.3,952.4Z" transform="translate(0 0)"/>
    </g>
    <g id="Ellipse_24" data-name="Ellipse 24" class="cls-2" transform="translate(647 4339)">
      <circle class="cls-3" cx="36" cy="36" r="36"/>
      <circle class="cls-4" cx="36" cy="36" r="34.75"/>
    </g>
  </g>
</svg>
