<svg xmlns="http://www.w3.org/2000/svg" viewBox="2990.845 29.134 181.371 31.866">
  <defs>
    <style>
      .cls-1 {
        fill: #fff;
      }
    </style>
  </defs>
  <g id="Group_9" data-name="Group 9" transform="translate(2952.474 -313.661)">
    <g id="Group_8" data-name="Group 8" transform="translate(38.371 342.794)">
      <path id="Path_20" data-name="Path 20" class="cls-1" d="M15.863,0A16.065,16.065,0,0,0,.842,21.2a3.68,3.68,0,0,0,.281-2.106v-.14A14.856,14.856,0,0,1,3.369,7.581a15.149,15.149,0,0,1,9.546-6.457,15.284,15.284,0,0,1,5.054-.14c.281,0,.421.281.421.562s-.281.421-.562.421a17.088,17.088,0,0,0-4.633.14A14.212,14.212,0,0,0,4.071,8.142,14.955,14.955,0,0,0,1.965,18.53v.281a4.83,4.83,0,0,1-.7,3.65,4.2,4.2,0,0,0,.562,1.123,5.52,5.52,0,0,0,1.263-4.633v-.14a10.836,10.836,0,0,1-.281-2.106c0-.281.14-.562.421-.562h0c.281,0,.421.14.562.421,0,.562.14,1.123.14,1.685v.281a7.217,7.217,0,0,1-1.685,6.036c.421.14.562.421.842.7A7.859,7.859,0,0,0,5.334,18.39v-.281A10.914,10.914,0,0,1,9.125,7.44c.281-.14.562-.14.7.14a.844.844,0,0,1-.14.562,10.011,10.011,0,0,0-3.51,9.405v.281A9.186,9.186,0,0,1,3.65,25.97c.281.281.421.562.7.842a9.181,9.181,0,0,0,2.386-3.65.535.535,0,1,1,.983.421,10.859,10.859,0,0,1-2.667,3.931l.842.842a12.506,12.506,0,0,0,3.51-10.669l-.14-.281a6.851,6.851,0,0,1,5.334-8,8,8,0,0,1,1.825-.14c.281,0,.421.281.421.562s-.281.421-.562.421a5.264,5.264,0,0,0-1.544.14,5.581,5.581,0,0,0-4.492,6.457v.281a13,13,0,0,1-3.51,11.792c.281.14.562.421.842.562a13.967,13.967,0,0,0,3.79-11.792c0-.281.14-.562.421-.562s.562.14.562.421A15.232,15.232,0,0,1,8.423,29.9a3.519,3.519,0,0,1,.983.562,16.179,16.179,0,0,0,3.088-4.913c.281-.281.562-.421.842-.281a.513.513,0,0,1,.281.7,19.436,19.436,0,0,1-3.088,4.913c.421.14.7.281,1.123.421A18.271,18.271,0,0,0,15.442,16c0-.281.14-.562.421-.562s.562.14.562.421a19.113,19.113,0,0,1-3.65,15.723,3.887,3.887,0,0,0,1.263.14,20.647,20.647,0,0,0,3.51-16.144v-.14A1.576,1.576,0,0,0,14.459,16v.281a19.655,19.655,0,0,1,0,7.019c0,.281-.281.421-.562.421s-.421-.281-.421-.562a19.083,19.083,0,0,0,0-6.317h0l-.14-.421A2.586,2.586,0,0,1,15.3,13.336a2.436,2.436,0,0,1,1.965.421,2.794,2.794,0,0,1,1.123,1.685l.14.421h0a22.081,22.081,0,0,1-3.369,16h1.263a21.647,21.647,0,0,0,3.369-9.686c0-.281.281-.421.562-.421s.421.281.421.562a22.111,22.111,0,0,1-3.229,9.405c.421,0,.983-.14,1.4-.14A24.709,24.709,0,0,0,21.478,14.88v-.14a5.711,5.711,0,0,0-2.808-3.65c-.281-.14-.281-.421-.14-.7s.421-.281.7-.14A7.136,7.136,0,0,1,22.6,14.88l.14.421h0A26.149,26.149,0,0,1,20.5,31.586a4.2,4.2,0,0,0,1.4-.562c.562-1.4,1.123-2.808,1.544-4.211.14-.281.281-.421.562-.421.281.14.421.281.421.562A31.591,31.591,0,0,1,23.3,30.322c.562-.281.983-.562,1.544-.842A29.351,29.351,0,0,0,25.97,14.319v-.14a10.773,10.773,0,0,0-1.685-3.931c-.562-.421-.421-.7-.281-.842.281-.14.562-.14.7.14a11.747,11.747,0,0,1,1.825,4.071h0v.14a29.67,29.67,0,0,1-.7,14.459,13.98,13.98,0,0,0,1.544-1.4,33.026,33.026,0,0,0,.842-9.125c0-.281.14-.562.421-.562s.562.14.562.421a34.375,34.375,0,0,1-.421,7.581,13.33,13.33,0,0,0,1.4-2.386,35.272,35.272,0,0,0-.421-9.405v-.281A13.953,13.953,0,0,0,20.215,2.386c-.281-.14-.421-.421-.281-.562.14-.281.421-.421.562-.281A15.036,15.036,0,0,1,30.6,12.494h0l.14.421a35.12,35.12,0,0,1,.7,6.6,15.3,15.3,0,0,0,.421-3.65A15.967,15.967,0,0,0,15.863,0ZM18.53,12.073A4.323,4.323,0,0,1,20.5,15.021l.14.421h0a21.426,21.426,0,0,1,.421,4.211.6.6,0,0,1-.562.562h0a.6.6,0,0,1-.562-.562,22.853,22.853,0,0,0-.421-4.352v-.14a3.37,3.37,0,0,0-1.544-2.106,3.952,3.952,0,0,0-2.808-.562A3.607,3.607,0,0,0,12.353,15.3c0,.281-.281.421-.562.421s-.421-.281-.421-.562a4.846,4.846,0,0,1,3.65-3.65A4,4,0,0,1,18.53,12.073Zm6.036,2.106v.281h0a28.067,28.067,0,0,1,.14,9.686c0,.281-.281.421-.562.421h-.14c-.281,0-.421-.281-.421-.562a27.214,27.214,0,0,0-.14-9.546v-.14A7.863,7.863,0,0,0,8,17.267v.281a6.253,6.253,0,0,1,.421,3.229c0,.281-.281.421-.562.421s-.421-.281-.421-.562a9.67,9.67,0,0,0-.14-2.808v-.281A8.8,8.8,0,0,1,14.178,7.159,9,9,0,0,1,24.567,14.178Zm-13.2-8.142a6.912,6.912,0,0,1,2.386-.842A10.714,10.714,0,0,1,22.882,7.44c.281.14.281.421.14.7a.516.516,0,0,1-.421.14c-.14,0-.281,0-.281-.14A10.631,10.631,0,0,0,13.9,6.177a12.353,12.353,0,0,0-2.106.7.513.513,0,0,1-.7-.281A.38.38,0,0,1,11.371,6.036Zm17.267,6.879h0l.14.421c.14.562.14,1.123.281,1.685,0,.281-.14.562-.421.562H28.5c-.281,0-.421-.14-.562-.421a4.988,4.988,0,0,0-.281-1.4v-.281A12.043,12.043,0,0,0,13.477,4.071a13.409,13.409,0,0,0-6.317,3.51A13.362,13.362,0,0,0,4.071,13.9c0,.281-.281.421-.562.421s-.421-.281-.421-.562A13.252,13.252,0,0,1,6.457,6.879a12.874,12.874,0,0,1,6.879-3.79A13.225,13.225,0,0,1,28.638,12.915Z"/>
      <g id="Group_7" data-name="Group 7" transform="translate(37.622 9.405)">
        <path id="Path_21" data-name="Path 21" class="cls-1" d="M30.45,9.427H27.081a.3.3,0,0,1-.281-.281V7.181a.3.3,0,0,1,.281-.281h9.546a.3.3,0,0,1,.281.281V9.006a.3.3,0,0,1-.281.281H33.257V20.1a.3.3,0,0,1-.281.281H30.871a.3.3,0,0,1-.281-.281V9.427Z" transform="translate(-26.8 -6.619)"/>
        <path id="Path_22" data-name="Path 22" class="cls-1" d="M39.667,15.182V18.13h6.317a.3.3,0,0,1,.281.281v1.825a.3.3,0,0,1-.281.281h-8.7A.3.3,0,0,1,37,20.236V7.181a.3.3,0,0,1,.281-.281h8.7a.3.3,0,0,1,.281.281V9.006a.3.3,0,0,1-.281.281H39.667v3.088H44.44a.3.3,0,0,1,.281.281v1.825a.3.3,0,0,1-.281.281H39.667Z" transform="translate(-22.681 -6.619)"/>
        <path id="Path_23" data-name="Path 23" class="cls-1" d="M51.734,12.7l-2.386,7.721c0,.14-.281.281-.421.281H46.681a.3.3,0,0,1-.281-.281L51.173,7.081a.3.3,0,0,1,.281-.281c.14,0,.281.14.421.281l4.071,8.844,4.071-8.844c0-.14.14-.281.421-.281s.281.14.281.281l4.773,13.336c0,.14,0,.281-.281.281H62.965c-.14,0-.421-.14-.421-.281L60.017,12.7l-3.79,7.861c-.14.14-.281.281-.421.281s-.281-.14-.421-.281Z" transform="translate(-18.885 -6.66)"/>
        <path id="Path_24" data-name="Path 24" class="cls-1" d="M65.467,20.236a.3.3,0,0,1-.281.281H63.081a.3.3,0,0,1-.281-.281V7.181a.3.3,0,0,1,.281-.281h4.913c3.79,0,4.913,2.667,4.913,4.492a4.64,4.64,0,0,1-4.633,4.492H65.608v4.352Zm4.492-8.984a1.89,1.89,0,0,0-1.965-1.965H65.467v3.931h2.667A1.77,1.77,0,0,0,69.959,11.252Z" transform="translate(-12.263 -6.619)"/>
        <path id="Path_25" data-name="Path 25" class="cls-1" d="M75.467,20.236a.3.3,0,0,1-.281.281H73.081a.3.3,0,0,1-.281-.281V7.181a.3.3,0,0,1,.281-.281h4.913c3.79,0,4.913,2.667,4.913,4.492a4.348,4.348,0,0,1-2.667,4.071l2.386,4.913c0,.14,0,.281-.14.281H80.1c-.14,0-.421-.14-.421-.281l-2.386-4.492H75.467Zm4.492-8.984a1.89,1.89,0,0,0-1.965-1.965H75.467v3.931h2.667A1.77,1.77,0,0,0,79.959,11.252Z" transform="translate(-8.225 -6.619)"/>
        <path id="Path_26" data-name="Path 26" class="cls-1" d="M96.317,13.859c0,2.948-1.544,7.159-6.738,7.159S82.7,16.807,82.7,13.859c0-2.808,1.544-7.159,6.879-7.159C94.773,6.7,96.317,10.911,96.317,13.859Zm-2.808,0c0-1.123-.562-4.492-3.931-4.492-3.51,0-4.071,3.369-4.071,4.492s.562,4.492,4.071,4.492S93.509,14.982,93.509,13.859Z" transform="translate(-4.227 -6.7)"/>
        <path id="Path_27" data-name="Path 27" class="cls-1" d="M100.838,20.557c0,.14-.14.281-.421.281a.3.3,0,0,1-.281-.281L94.1,7.081c0-.14,0-.281.14-.281h2.527c.14,0,.421.14.421.281l3.369,8.282,3.369-8.282c0-.14.281-.281.421-.281h2.386c.14,0,.281.14.14.281Z" transform="translate(0.376 -6.66)"/>
        <path id="Path_28" data-name="Path 28" class="cls-1" d="M108.967,20.236a.3.3,0,0,1-.281.281h-2.106a.3.3,0,0,1-.281-.281V7.181a.3.3,0,0,1,.281-.281h2.106a.3.3,0,0,1,.281.281Z" transform="translate(5.302 -6.619)"/>
        <path id="Path_29" data-name="Path 29" class="cls-1" d="M111.881,20.657a.3.3,0,0,1-.281-.281V7.181a.3.3,0,0,1,.281-.281h4.492c5.194,0,6.738,3.931,6.738,6.879s-1.544,6.879-6.738,6.879Zm4.633-2.527c3.51,0,3.931-3.229,3.931-4.352s-.562-4.352-3.931-4.352h-2.106v8.7Z" transform="translate(7.443 -6.619)"/>
        <path id="Path_30" data-name="Path 30" class="cls-1" d="M125.267,15.182V18.13h6.317a.3.3,0,0,1,.281.281v1.825a.3.3,0,0,1-.281.281h-8.7a.3.3,0,0,1-.281-.281V7.181a.3.3,0,0,1,.281-.281h8.7a.3.3,0,0,1,.281.281V9.006a.3.3,0,0,1-.281.281h-6.317v3.088h4.773a.3.3,0,0,1,.281.281v1.825a.3.3,0,0,1-.281.281h-4.773Z" transform="translate(11.884 -6.619)"/>
      </g>
    </g>
  </g>
</svg>
