<svg xmlns="http://www.w3.org/2000/svg" viewBox="3915.919 109.001 14.162 20.313">
  <defs>
    <style>
      .cls-1 {
        fill: #b1cbfd;
      }
    </style>
  </defs>
  <g id="Group_148" data-name="Group 148" transform="translate(3990.081 3827.313) rotate(180)">
    <g id="Group_116" data-name="Group 116" transform="translate(60 3697.999)">
      <path id="Path_145" data-name="Path 145" class="cls-1" d="M7.534,20.122a.589.589,0,0,1-.381.191.434.434,0,0,1-.381-.191L.143,13.542a.248.248,0,0,1-.1-.191c0-.1-.048-.1-.048-.191a.287.287,0,0,1,.048-.191.361.361,0,0,1,.1-.191.589.589,0,0,1,.381-.191.434.434,0,0,1,.381.191L6.58,18.405V.572A.541.541,0,0,1,6.723.191.589.589,0,0,1,7.1,0a.541.541,0,0,1,.381.143.541.541,0,0,1,.143.381V18.405l5.627-5.627a.589.589,0,0,1,.381-.191.434.434,0,0,1,.381.191.58.58,0,0,1,0,.763Z"/>
    </g>
  </g>
</svg>
